<svg width="760" height="555" viewBox="0 0 760 555" fill="none" xmlns="http://www.w3.org/2000/svg">
<path d="M376.817 252.718C383.037 239.508 392.248 233.454 407.067 233.547C415.442 233.599 424.09 235.679 430.143 241.826C438.721 250.539 438.853 262.191 438.837 273.579L438.823 327.433C433.132 327.46 427.438 327.456 421.745 327.421C421.81 325.416 421.766 323.343 421.768 321.331C421.773 310.202 421.773 299.072 421.771 287.942L421.77 274.444C421.768 269.865 422.077 264.476 420.895 260.169C418.346 250.892 410.763 247.043 401.713 247.366C395.03 247.605 391.16 248.139 386.199 253.091C377.888 261.386 378.941 275.183 378.939 286.024V327.416C373.653 327.588 367.386 327.454 362.082 327.423L362.106 286.302C362.109 278.299 362.494 268.762 361.282 260.909C360.822 257.922 358.882 254.637 356.754 252.501C352.363 248.094 347.958 247.431 342.059 247.376C335.619 247.316 331.469 248.356 326.63 252.928C323.442 256.031 320.972 260.893 320.198 265.333C318.851 273.063 319.33 281.846 319.331 289.705L319.319 327.416C314.152 327.588 307.988 327.467 302.796 327.423C302.869 323.008 302.776 318.565 302.807 314.146C302.992 288.048 302.553 261.884 302.841 235.792C308.205 235.931 313.866 235.765 319.303 235.849C319.358 240.223 319.271 244.608 319.402 248.979C324.501 237.901 334.793 234.591 345.944 233.563C360.444 233.101 371.081 239.226 376.817 252.718Z" fill="#707075"/>
<path d="M302.921 338.921L305.907 339.036C307.576 343.193 309.776 348.944 311.1 353.173C312.684 348.695 314.555 343.403 316.336 339.016C317.299 338.958 318.444 339 319.424 339.013C319.236 344.241 319.447 350.234 319.367 355.595L317.273 355.612C317.374 352.107 317.166 348.573 317.345 345.023C317.393 343.948 317.494 342.804 317.571 341.724C316.005 344.998 313.591 351.983 312.209 355.611L309.965 355.551C308.612 351.528 306.329 346.723 305.325 342.873L305.099 342.974C304.838 343.856 304.924 353.897 304.922 355.575L302.818 355.627C303.066 351.966 302.688 347.367 302.806 343.627C302.854 342.118 302.694 340.413 302.921 338.921Z" fill="#707075" fill-opacity="0.988235"/>
<path d="M207.691 338.983C208.441 338.979 208.877 338.944 209.614 339.145C210.518 339.752 215.336 353.309 216.397 355.604L214.028 355.595L212.221 350.518L209.871 350.559C208.335 350.569 206.798 350.553 205.263 350.509L203.386 355.559L201.037 355.618C203.345 350.945 205.322 343.904 207.691 338.983ZM205.882 348.659C207.02 348.691 208.158 348.709 209.296 348.709L211.604 348.696C211.112 347.678 209.004 341.539 208.81 341.302C207.669 343.435 206.982 346.432 205.882 348.659Z" fill="#707075" fill-opacity="0.980392"/>
<path d="M358.778 343.477C358.958 343.457 359.138 343.443 359.319 343.433C363.82 343.203 365.209 346.432 365.356 350.262L356.175 350.278C356.696 352.47 357.594 354.735 360.77 354.082C361.855 353.858 362.529 352.975 362.988 351.992L363.136 351.575C363.642 351.388 364.623 351.588 365.208 351.662C364.505 353.579 363.904 354.859 361.758 355.492C360.026 356.004 358.312 355.992 356.715 355.09C353.276 353.147 353.173 347.145 356.047 344.681C356.947 343.908 357.667 343.726 358.778 343.477ZM356.177 348.539C357.945 348.46 359.538 348.474 361.308 348.499L363.329 348.504C362.216 345.457 361.769 345.074 358.54 345.235C356.766 346.013 356.762 346.764 356.177 348.539Z" fill="#707075" fill-opacity="0.984314"/>
<path d="M509.671 343.487C509.938 343.461 510.207 343.443 510.474 343.434C514.826 343.283 516.293 346.476 516.309 350.262C515.036 350.259 508.293 350.125 507.524 350.455C506.723 353.627 511.757 356.209 514.096 351.823L514.203 351.593C514.681 351.374 515.598 351.607 516.171 351.696C514.836 355.522 511.55 356.836 507.831 355.154C504.749 353.759 504.411 348.636 505.928 346.047C506.833 344.499 507.946 343.931 509.671 343.487ZM512.082 348.495C512.818 348.501 513.523 348.499 514.258 348.545C513.252 345.348 512.752 345.078 509.406 345.235C508.436 345.782 507.381 346.718 507.478 347.948C508.268 348.944 510.778 348.462 512.082 348.495Z" fill="#707075" fill-opacity="0.984314"/>
<path d="M387.385 343.479C387.572 343.459 387.761 343.443 387.951 343.431C392.4 343.189 393.784 346.458 393.898 350.246C392.536 350.257 385.543 350.087 385.009 350.559C384.486 351.888 385.478 353.007 386.609 353.605C387.556 354.109 388.668 354.199 389.685 353.854C390.733 353.494 391.092 352.952 391.553 352.031L391.648 351.835L391.774 351.597C392.29 351.372 393.138 351.607 393.738 351.71C393.054 353.644 392.348 354.924 390.208 355.524C388.569 356.024 386.862 355.973 385.327 355.113C382.259 353.395 381.914 348.633 383.615 345.862C384.527 344.374 385.727 343.84 387.385 343.479ZM384.847 348.502C386.522 348.479 388.198 348.476 389.874 348.49C390.533 348.501 391.169 348.502 391.829 348.552C390.819 345.339 390.305 345.062 386.947 345.242C385.725 345.969 385.391 346.338 385.013 347.812C384.955 348.042 384.9 348.271 384.847 348.502Z" fill="#707075" fill-opacity="0.984314"/>
<path d="M326.013 343.51C334.684 342.192 330.584 350.402 331.998 353.507C333.352 354.216 333.122 354.135 333.298 355.57C331.177 355.581 331.005 355.918 329.769 354.259C327.866 354.336 327.518 357.934 322.576 354.557C319.608 349.124 326.376 348.656 329.848 348.096C329.735 346.621 329.818 346.035 328.321 345.207C327.132 344.548 325.191 345.044 324.679 346.358C324.327 347.258 323.975 348.125 322.861 347.546C321.207 345.378 324.213 343.904 326.013 343.51ZM325.476 354.017C326.848 354.066 327.88 354.167 328.955 353.124C329.785 352.317 330.14 350.892 329.577 349.854C329.192 349.761 329.217 349.747 328.843 349.865C327.391 350.107 323.681 350.594 323.923 352.726C324.318 353.436 324.716 353.736 325.476 354.017Z" fill="#707075" fill-opacity="0.984314"/>
<path d="M460.568 339.007C461.089 339 461.644 338.962 462.155 339.069C463.571 339.364 461.715 350.017 463.483 352.455C464.047 353.231 464.856 353.643 465.791 353.791C467.112 354.003 468.754 353.865 469.832 353.025C472.534 350.921 470.907 342.741 471.389 339.308C471.958 338.813 472.877 338.852 473.402 339.385L473.36 340.623C473.397 343.729 474.207 351.558 472.151 353.898C469.563 356.965 461.413 356.492 460.81 351.925C460.289 347.962 460.549 343.037 460.568 339.007Z" fill="#707075" fill-opacity="0.980392"/>
<path d="M529.415 343.502C532.754 343.046 534.584 344.045 535.598 347.291C532.795 347.772 533.926 347.027 532.422 345.584C531.382 344.792 528.602 345.06 528.15 346.319C527.471 348.204 532.579 348.451 533.689 349.198C534.398 349.674 535.416 350.072 535.634 351.09C536.349 354.458 534.251 355.261 531.558 355.861C529.519 355.921 524.302 354.191 526.129 351.673C529.056 351.272 527.19 352.656 529.659 353.971C530.357 354.343 531.181 354.402 531.925 354.128C534.212 353.314 534.626 351.747 532.093 350.903C529.488 350.034 524.595 349.367 526.516 345.355C527.087 344.158 528.266 343.8 529.415 343.502Z" fill="#707075" fill-opacity="0.984314"/>
<path d="M346.253 343.48C349.425 343.143 351.231 344.095 352.089 347.237C351.008 347.475 350.157 347.826 349.71 346.545C349.029 344.592 345.194 344.631 344.573 346.688C344.898 347.708 347.053 348.303 348.053 348.499C350.921 349.064 353.663 350.788 351.812 354.082C351.175 355.215 349.474 355.558 348.221 355.833C344.865 356.116 343.156 354.841 342.219 351.72C344.891 351.323 343.904 351.955 345.496 353.597C346.109 354.2 348.666 354.248 349.304 353.803C352.948 351.177 346.281 350.446 344.928 349.74C341.064 347.726 342.299 344.285 346.253 343.48Z" fill="#707075" fill-opacity="0.984314"/>
<path d="M481.348 343.484C481.464 343.475 481.583 343.466 481.699 343.461C488.413 343.096 486.649 350.974 486.719 355.611C485.977 355.593 485.178 355.611 484.429 355.616C484.462 353.134 484.605 350.518 484.46 348.054C484.307 345.413 482.769 345.025 480.584 345.313C477.632 346.818 478.518 352.615 478.504 355.586L476.37 355.614C476.524 351.983 476.375 347.316 476.383 343.581C477.196 343.618 477.781 343.505 478.385 343.892C478.491 344.284 478.548 344.419 478.698 344.785C479.204 344.792 480.073 343.839 481.137 343.54L481.348 343.484Z" fill="#707075" fill-opacity="0.984314"/>
<path d="M230.178 343.682L232.486 343.592C231.406 345.321 229.609 347.669 228.384 349.378C229.041 350.211 232.586 354.836 232.538 355.505L232.068 355.646C231.652 355.627 231.325 355.597 230.911 355.549C229.465 354.73 228.156 352.158 227.311 350.661C226.472 352.146 225.028 354.082 224.011 355.521L221.465 355.653C222.899 354.131 224.855 351.187 226.129 349.396L222.044 343.606C222.9 343.625 223.586 343.676 224.437 343.754C225.442 345.152 226.428 346.564 227.394 347.989C228.253 346.391 229.131 345.17 230.178 343.682Z" fill="#707075" fill-opacity="0.976471"/>
<path d="M502.345 343.636C503.059 343.652 503.773 343.618 504.485 343.593L503.782 345.614C502.599 348.645 501.104 352.552 500.197 355.623L497.867 355.545C496.611 351.819 494.91 347.302 493.466 343.627C494.226 343.613 494.696 343.572 495.446 343.761C496.409 344.402 498.645 352.172 498.979 353.646C500.059 350.442 501.134 346.704 502.345 343.636Z" fill="#707075" fill-opacity="0.980392"/>
<path d="M544.047 340.407C544.708 340.411 545.332 340.319 545.834 340.684C546.29 341.375 546.099 342.658 546.078 343.576C547.174 343.581 548.07 343.366 548.556 344.506C548.293 345.764 547.137 345.494 546.11 345.445C546.068 346.88 545.887 352.354 546.382 353.358C547.004 353.851 547.172 353.711 548.098 353.718C548.615 354.05 548.447 353.909 548.666 354.659C548.524 355.099 548.537 355.182 548.213 355.517C541.403 357.116 545.094 347.461 543.752 345.535C543.241 345.464 543.14 345.456 542.665 345.274C542.327 344.709 542.409 344.178 542.81 343.689C543.285 343.646 543.372 343.655 543.83 343.463C544.125 342.921 544.042 341.138 544.047 340.407Z" fill="#707075" fill-opacity="0.984314"/>
<path d="M372.91 339.02C373.592 339.009 374.349 338.926 374.958 339.173C375.115 340.873 375.045 343.473 375.046 345.26L375.051 355.595L372.937 355.598C373.062 350.4 372.922 344.278 372.91 339.02Z" fill="#707075" fill-opacity="0.980392"/>
<path d="M524.273 343.47C524.738 343.408 524.837 343.36 525.256 343.581C525.412 344.118 525.339 344.404 525.29 344.972C524.349 345.865 522.682 345.362 521.908 346.22C520.339 347.959 520.738 353.325 520.745 355.612C520.146 355.614 519.195 355.704 518.723 355.42C518.686 351.487 518.684 347.554 518.716 343.62C519.328 343.627 519.941 343.646 520.554 343.68C520.842 344.033 520.75 344.524 520.766 345.076C521.15 345.129 522.391 343.897 524.042 343.521L524.273 343.47Z" fill="#707075" fill-opacity="0.984314"/>
<path d="M340.817 343.465C341.063 343.443 341.428 343.452 341.686 343.45L341.885 343.657C341.846 346.875 339.832 344.691 338.479 346.179C336.896 347.92 337.393 353.418 337.406 355.567L335.293 355.598C335.492 352.229 335.292 347.175 335.32 343.579C338.39 343.724 336.723 343.802 337.638 344.799C338.47 344.735 338.856 343.89 340.817 343.465Z" fill="#707075" fill-opacity="0.984314"/>
<path d="M378.158 339.025C378.793 339.009 379.657 338.912 380.131 339.285C380.316 340.773 380.239 343.277 380.239 344.889C380.242 348.462 380.225 352.036 380.187 355.611C379.517 355.591 378.846 355.568 378.174 355.54L378.158 339.025Z" fill="#707075" fill-opacity="0.980392"/>
<path d="M367.791 343.602L369.901 343.63C369.844 347.558 369.899 351.625 369.882 355.57L367.798 355.611C367.881 351.72 367.795 347.517 367.791 343.602Z" fill="#707075" fill-opacity="0.988235"/>
<path d="M489.699 343.592C490.417 343.604 490.914 343.577 491.612 343.782C491.942 344.833 491.789 353.771 491.78 355.558L489.71 355.623C489.83 351.844 489.708 347.422 489.699 343.592Z" fill="#707075" fill-opacity="0.988235"/>
<path d="M538.147 343.59C538.737 343.607 539.729 343.549 540.109 343.918C540.417 345.902 540.243 353.282 540.231 355.559L538.151 355.625C538.285 351.89 538.156 347.385 538.147 343.59Z" fill="#707075" fill-opacity="0.988235"/>
<path d="M217.903 343.63H220.037C219.857 346.855 219.95 352.273 220.003 355.575L217.925 355.616C217.969 351.657 217.913 347.597 217.903 343.63Z" fill="#707075" fill-opacity="0.980392"/>
<path d="M555.837 339L558.184 339.027C557.488 339.864 556.768 340.889 556.116 341.773C555.646 342.005 555.176 342.167 554.674 342.042L554.547 341.699C554.722 340.811 555.374 339.811 555.837 339Z" fill="#707075" fill-opacity="0.972549"/>
<path d="M489.738 339.006C490.449 339.004 491.075 338.896 491.605 339.3C491.932 339.879 491.768 340.79 491.723 341.51C491.043 341.54 490.497 341.657 489.931 341.329C489.577 340.774 489.719 339.733 489.738 339.006Z" fill="#707075" fill-opacity="0.94902"/>
<path d="M367.829 339C368.503 339.002 369.192 338.907 369.704 339.272C370.061 339.871 369.88 340.76 369.825 341.516C369.168 341.486 368.474 341.551 367.815 341.592L367.829 339Z" fill="#707075" fill-opacity="0.956863"/>
<path d="M217.944 339.041C218.614 339.022 219.219 338.919 219.777 339.233C220.133 339.791 219.976 340.661 219.94 341.382C219.395 341.56 218.689 341.632 218.163 341.392C217.777 340.73 217.918 339.855 217.944 339.041Z" fill="#707075" fill-opacity="0.941176"/>
<path d="M539.407 338.981L539.957 339.101C540.89 340.141 540.047 341.68 538.704 341.705C537.96 341.055 537.997 339.74 538.476 338.958C538.511 339.774 538.414 340.104 538.953 340.617L539.238 340.578C539.519 340.104 539.584 339.509 539.407 338.981Z" fill="#707075" fill-opacity="0.917647"/>
<path d="M538.476 338.958L539.407 338.981C539.584 339.509 539.519 340.104 539.238 340.578L538.953 340.617C538.414 340.104 538.511 339.774 538.476 338.958Z" fill="#707075" fill-opacity="0.945098"/>
<path d="M201.952 264.198L201.988 264.014C202.311 262.308 202.401 260.084 202.71 258.167C203.8 251.396 207.034 244.681 212.885 240.725C223.449 233.581 240.3 232.392 252.588 234.561C260.102 235.887 267.24 239.468 271.616 245.845C273.5 248.615 274.818 251.728 275.496 255.007C276.789 261.317 276.456 269.552 276.452 276.13L276.443 301.808C276.443 304.846 276.122 310.151 277.058 312.86C277.908 315.317 285.017 314.351 287.087 313.791C287.066 318.356 287.421 322.718 287.374 327.333C285.404 327.993 283.992 327.903 281.964 328.055C277.348 328.399 272.451 328.464 268.185 326.397C262.987 323.878 261.316 319.402 260.614 314.065C259.533 315.783 258.617 317.443 257.367 319.034C253.556 323.892 247.115 327.26 241.079 328.536C231.117 330.642 219.502 330.042 210.713 324.422C205.916 321.356 202.448 317.497 200.448 312.096C199.857 310.501 199.53 308.651 199 307.191V298.709C199.684 296.824 199.982 294.874 200.727 293.013C206.519 278.522 224.514 276.208 237.952 273.656C245.256 272.269 252.92 270.524 260.26 269.383C260.998 254.806 258.081 247.064 241.804 246.775C227.121 246.514 218.576 249.998 218.19 266.188L218.187 266.35C213.572 265.871 206.473 265.03 201.952 264.198ZM220.038 312.279C225.493 316.598 231.521 316.723 238.184 316.014C245.135 315.274 251.688 312.628 256.215 306.959C261.71 300.076 260.075 290.274 260.353 282.101C260.357 281.989 260.237 281.846 260.172 281.757L239.584 286.282C233.074 287.702 221.578 289.204 217.821 295.249C214.673 300.316 215.199 308.221 220.038 312.279Z" fill="#707075"/>
<path d="M460.527 199.053L477.291 199.072C477.288 199.182 477.282 199.292 477.28 199.403C477.148 205.487 477.286 212.14 477.284 218.287L477.275 276.802C477.275 281.808 477.077 286.865 477.927 291.826C483.237 322.831 538.407 322.519 543.586 291.596C544.381 286.841 544.217 282.633 544.215 277.81L544.224 199.085C549.5 198.947 555.715 198.998 561 199.094V289.397C560.578 291.006 560.268 294.805 559.886 296.755C558.453 304.092 554.874 311.464 549.479 316.712C538.698 327.168 524.006 329.684 509.654 329.599C489.851 329.483 470.074 322.819 463.156 302.566C460.149 293.763 460.49 286.436 460.501 277.299L460.527 199.053Z" fill="#707075"/>
<path d="M558.865 351.47C559.45 351.512 559.893 351.466 560.334 351.817C561.403 355.342 551.941 358.571 550.032 352.17C548.321 346.434 552.254 341.56 558.046 344.1C559.795 344.866 560.51 346.982 561 348.659V350.285C558.46 350.365 554.849 350.008 552.288 350.386C552.021 350.425 552.051 350.566 551.909 350.898C552.06 354.146 555.358 354.599 557.857 353.355L558.865 351.47ZM551.78 348.585C553.521 348.423 555.222 348.476 556.968 348.495C557.564 348.508 558.165 348.516 558.759 348.538C558.085 345.306 557.11 345.15 554.011 345.233C552.367 346.172 552.341 346.735 551.78 348.585Z" fill="#707075" fill-opacity="0.984314"/>
</svg>
