<svg width="760" height="555" viewBox="0 0 760 555" fill="none" xmlns="http://www.w3.org/2000/svg">
<path d="M176.167 237.605C176.894 237.475 180.63 237.378 181.577 237.337L181.588 269.095C186.898 269.306 193.653 269.12 199.059 269.121L233.371 269.122V237.334C240.337 237.536 247.297 238.336 254.039 240.106L254.039 314.773C247.4 316.661 244.119 316.786 237.2 317.329L233.371 317.573L233.371 284.512L181.588 284.512L181.564 317.576C173.281 317.049 168.789 316.646 160.776 314.83V240.156C166.678 238.444 170.106 238.234 176.167 237.605Z" fill="#707075"/>
<path d="M319.7 238.795H348.879C350.414 242.355 356.086 252.166 358.225 256.124L378.209 293.158C379.152 294.909 389.23 313.796 389.563 314.08L389.509 314.762C386.975 316.447 370.7 317.611 367.115 317.688C365.069 314.54 360.099 303.676 358.114 299.631L339.742 262.746C338.545 260.182 336.143 253.494 333.429 252.852C331.41 254.539 329.105 261.378 327.774 264.034L311.427 296.62C308.685 302.207 303.886 312.71 300.864 317.679C294.036 317.605 285.78 316.548 279.221 314.678C281.041 311.938 284.208 305.578 285.887 302.436L300.277 275.293L313.909 249.998C315.008 247.947 319.124 240.574 319.7 238.795Z" fill="#707075"/>
<path d="M332.541 282.006C339.967 281.226 346.612 286.634 347.356 294.064C348.1 301.494 342.66 308.113 335.226 308.821C327.843 309.525 321.279 304.13 320.54 296.75C319.801 289.37 325.165 282.78 332.541 282.006Z" fill="#707075"/>
<path d="M548.51 236.846H572.242C577.013 237.642 600.49 238.597 602.898 241.3C603.269 244.353 603.095 250.609 603.079 253.94H537.651V268.562H580.182C580.176 273.099 580.379 279.433 580.154 283.813H537.651V301.082H603.047C603.247 302.906 603.612 313.778 602.758 314.067C595.678 316.464 582.799 316.814 575.542 317.558C572.045 317.916 564.394 317.565 562.835 318.154H557.731C556.854 317.861 548.98 317.725 547.513 317.664C542.46 317.454 520.053 315.836 517.118 313.894C516.73 311.884 516.902 306.06 516.902 303.703L516.873 256.462C516.867 252.302 516.667 245.105 517.054 241.263C519.087 238.741 544 237.618 548.51 236.846Z" fill="#707075"/>
<path d="M674.08 236.846H692.263C700.022 238.151 708.515 237.798 716.294 239.642C717.437 239.913 718.831 240.108 720 240.287V253.351H652.632V267.891L685.476 267.875C694.547 267.875 704.088 267.307 712.952 269.184C716.252 269.883 717.783 272.19 720 274.172V307.685C712.73 315.484 696.821 315.997 686.683 317.332C684.901 317.566 680.315 317.807 678.952 318.154H664.895C662.97 317.724 659.966 317.775 658 317.588C653.02 317.116 638.908 316.072 635.125 314.276C634.144 313.269 634.551 303.752 634.57 301.665L704.234 301.662V284.382L671.927 284.393C662.907 284.405 648.722 285.265 640.731 281.634C632.68 277.976 633.188 252.687 636.917 246.878C642.538 238.124 664.99 238.713 674.08 236.846Z" fill="#707075"/>
<path d="M71.8546 236.846H97.7228C102.333 237.595 129.374 238.733 131.18 241.198C131.556 243.423 131.358 251.323 131.339 253.997H94.9167V316.16C88.4413 316.472 80.605 316.259 74.0318 316.25V253.997H40V240.145C40.831 240.09 42.1966 239.968 42.9919 239.788C52.1814 237.706 62.7957 238.372 71.8546 236.846Z" fill="#707075"/>
<path d="M414.299 238.573L435.083 238.583V300.169C453.536 300.172 473.456 299.772 491.773 300.181C491.789 302.172 492.173 313.65 491.268 314.003C485.319 316.319 472.802 316.958 466.247 317.575C463.128 317.868 456.877 317.733 455.432 318.154H451.052C442.597 317.053 422.474 317.509 414.654 314.079C413.943 312.636 414.295 245.776 414.299 238.573Z" fill="#707075"/>
</svg>
